<svg width="111" height="100" viewBox="0 0 111 100" fill="none" xmlns="http://www.w3.org/2000/svg">
<path d="M62.7917 33.6562C63.7531 33.6562 64.6751 33.276 65.3549 32.5991C66.0347 31.9222 66.4167 31.0041 66.4167 30.0469C66.4167 29.0896 66.0347 28.1716 65.3549 27.4947C64.6751 26.8178 63.7531 26.4375 62.7917 26.4375C61.8303 26.4375 60.9082 26.8178 60.2284 27.4947C59.5486 28.1716 59.1667 29.0896 59.1667 30.0469C59.1667 31.0041 59.5486 31.9222 60.2284 32.5991C60.9082 33.276 61.8303 33.6562 62.7917 33.6562ZM66.4167 44.4844C66.4167 45.4416 66.0347 46.3597 65.3549 47.0366C64.6751 47.7135 63.7531 48.0938 62.7917 48.0938C61.8303 48.0938 60.9082 47.7135 60.2284 47.0366C59.5486 46.3597 59.1667 45.4416 59.1667 44.4844C59.1667 43.5271 59.5486 42.6091 60.2284 41.9322C60.9082 41.2553 61.8303 40.875 62.7917 40.875C63.7531 40.875 64.6751 41.2553 65.3549 41.9322C66.0347 42.6091 66.4167 43.5271 66.4167 44.4844ZM62.7917 62.5312C63.2677 62.5312 63.7391 62.4379 64.1789 62.2565C64.6187 62.0751 65.0183 61.8092 65.3549 61.4741C65.6915 61.1389 65.9586 60.741 66.1407 60.3031C66.3229 59.8652 66.4167 59.3959 66.4167 58.9219C66.4167 58.4479 66.3229 57.9785 66.1407 57.5406C65.9586 57.1027 65.6915 56.7048 65.3549 56.3697C65.0183 56.0345 64.6187 55.7686 64.1789 55.5872C63.7391 55.4059 63.2677 55.3125 62.7917 55.3125C61.8303 55.3125 60.9082 55.6928 60.2284 56.3697C59.5486 57.0466 59.1667 57.9646 59.1667 58.9219C59.1667 59.8791 59.5486 60.7972 60.2284 61.4741C60.9082 62.151 61.8303 62.5312 62.7917 62.5312ZM80.9167 30.0469C80.9167 31.0041 80.5347 31.9222 79.8549 32.5991C79.1751 33.276 78.2531 33.6562 77.2917 33.6562C76.3303 33.6562 75.4082 33.276 74.7284 32.5991C74.0486 31.9222 73.6667 31.0041 73.6667 30.0469C73.6667 29.0896 74.0486 28.1716 74.7284 27.4947C75.4082 26.8178 76.3303 26.4375 77.2917 26.4375C78.2531 26.4375 79.1751 26.8178 79.8549 27.4947C80.5347 28.1716 80.9167 29.0896 80.9167 30.0469ZM77.2917 48.0938C78.2531 48.0938 79.1751 47.7135 79.8549 47.0366C80.5347 46.3597 80.9167 45.4416 80.9167 44.4844C80.9167 43.5271 80.5347 42.6091 79.8549 41.9322C79.1751 41.2553 78.2531 40.875 77.2917 40.875C76.3303 40.875 75.4082 41.2553 74.7284 41.9322C74.0486 42.6091 73.6667 43.5271 73.6667 44.4844C73.6667 45.4416 74.0486 46.3597 74.7284 47.0366C75.4082 47.7135 76.3303 48.0938 77.2917 48.0938ZM80.9167 58.9219C80.9167 59.8791 80.5347 60.7972 79.8549 61.4741C79.1751 62.151 78.2531 62.5312 77.2917 62.5312C76.3303 62.5312 75.4082 62.151 74.7284 61.4741C74.0486 60.7972 73.6667 59.8791 73.6667 58.9219C73.6667 57.9646 74.0486 57.0466 74.7284 56.3697C75.4082 55.6928 76.3303 55.3125 77.2917 55.3125C78.2531 55.3125 79.1751 55.6928 79.8549 56.3697C80.5347 57.0466 80.9167 57.9646 80.9167 58.9219ZM91.7917 62.5312C92.2677 62.5312 92.7391 62.4379 93.1789 62.2565C93.6187 62.0751 94.0183 61.8092 94.3549 61.4741C94.6915 61.1389 94.9586 60.741 95.1407 60.3031C95.3229 59.8652 95.4167 59.3959 95.4167 58.9219C95.4167 58.4479 95.3229 57.9785 95.1407 57.5406C94.9586 57.1027 94.6915 56.7048 94.3549 56.3697C94.0183 56.0345 93.6187 55.7686 93.1789 55.5872C92.7391 55.4059 92.2677 55.3125 91.7917 55.3125C90.8303 55.3125 89.9082 55.6928 89.2284 56.3697C88.5486 57.0466 88.1667 57.9646 88.1667 58.9219C88.1667 59.8791 88.5486 60.7972 89.2284 61.4741C89.9082 62.151 90.8303 62.5312 91.7917 62.5312ZM51.9167 89C51.2757 89 50.661 88.7465 50.2078 88.2952C49.7546 87.844 49.5 87.2319 49.5 86.5938V19.2188C49.5 17.3042 50.2638 15.4681 51.6235 14.1143C52.9831 12.7605 54.8272 12 56.75 12H85.75C87.6728 12 89.5169 12.7605 90.8765 14.1143C92.2362 15.4681 93 17.3042 93 19.2188V40.875H100.25C102.173 40.875 104.017 41.6355 105.377 42.9893C106.736 44.3431 107.5 46.1792 107.5 48.0938V86.5938C107.5 87.2319 107.245 87.844 106.792 88.2952C106.339 88.7465 105.724 89 105.083 89H51.9167ZM54.3333 19.2188V84.1875H64V72.1562C64 71.5181 64.2546 70.906 64.7078 70.4548C65.161 70.0035 65.7757 69.75 66.4167 69.75H90.5833C91.2243 69.75 91.839 70.0035 92.2922 70.4548C92.7454 70.906 93 71.5181 93 72.1562V84.1875H102.667V48.0938C102.667 47.4556 102.412 46.8435 101.959 46.3923C101.506 45.941 100.891 45.6875 100.25 45.6875H90.5833C89.9424 45.6875 89.3277 45.434 88.8745 44.9827C88.4213 44.5315 88.1667 43.9194 88.1667 43.2813V19.2188C88.1667 18.5806 87.9121 17.9685 87.4588 17.5173C87.0056 17.066 86.3909 16.8125 85.75 16.8125H56.75C56.1091 16.8125 55.4944 17.066 55.0412 17.5173C54.5879 17.9685 54.3333 18.5806 54.3333 19.2188ZM88.1667 74.5625H80.9167V84.1875H88.1667V74.5625ZM76.0833 74.5625H68.8333V84.1875H76.0833V74.5625Z" fill="#FF5C0A"/>
<g clip-path="url(#clip0_1_98)">
<path d="M51.0806 84.0885H48.6613V65.9774C48.66 65.4063 48.5409 64.8418 48.3117 64.3201C48.0825 63.7985 47.7484 63.3314 47.3306 62.9487L31.2016 48.071C30.4616 47.3822 29.494 47 28.4899 47C27.4858 47 26.5182 47.3822 25.7782 48.071L9.64919 62.9487C9.23805 63.3355 8.90957 63.804 8.68415 64.325C8.45872 64.846 8.34114 65.4084 8.33871 65.9774V84.0885H5.91935C5.2777 84.0885 4.66233 84.3473 4.20861 84.8078C3.7549 85.2683 3.5 85.893 3.5 86.5443C3.5 87.1956 3.7549 87.8202 4.20861 88.2807C4.66233 88.7413 5.2777 89 5.91935 89H51.0806C51.7223 89 52.3377 88.7413 52.7914 88.2807C53.2451 87.8202 53.5 87.1956 53.5 86.5443C53.5 85.893 53.2451 85.2683 52.7914 84.8078C52.3377 84.3473 51.7223 84.0885 51.0806 84.0885ZM13.1774 66.3458L28.5 52.2048L43.8226 66.3458V84.0885H35.7581V75.0841C35.7528 74.0003 35.3262 72.9624 34.5712 72.196C33.8161 71.4296 32.7936 70.9966 31.7258 70.9912H25.2742C24.2064 70.9966 23.1839 71.4296 22.4288 72.196C21.6738 72.9624 21.2472 74.0003 21.2419 75.0841V84.0885H13.1774V66.3458ZM30.9194 84.0885H26.0806V75.9027H30.9194V84.0885Z" fill="#FF5C0A"/>
</g>
<defs>
<clipPath id="clip0_1_98">
<rect width="52" height="49" fill="white" transform="translate(3.5 40)"/>
</clipPath>
</defs>
</svg>
