<svg width="101" height="100" viewBox="0 0 101 100" fill="none" xmlns="http://www.w3.org/2000/svg">
<path d="M71.1735 8.09016C67.3607 6.62359 63.1393 6.62359 59.3265 8.09016L40.291 15.4052C38.7341 16.0034 37.3951 17.0594 36.4505 18.434C35.506 19.8087 35.0002 21.4373 35 23.1052V29.1607C36.8261 28.9307 38.6739 28.9307 40.5 29.1607V23.1107C40.4994 22.5548 40.6673 22.0119 40.9815 21.5533C41.2957 21.0948 41.7414 20.7423 42.26 20.5422L61.301 13.2217C63.8429 12.2439 66.6571 12.2439 69.199 13.2217L88.2345 20.5422C88.7531 20.7423 89.1988 21.0948 89.513 21.5533C89.8272 22.0119 89.9951 22.5548 89.9945 23.1107V65.9007C89.994 66.4556 89.8256 66.9973 89.5115 67.4548C89.1974 67.9122 88.7522 68.2639 88.2345 68.4637L73.4945 74.1342V76.9007C73.4945 78.0227 73.3625 79.1227 73.0985 80.1787L90.209 73.6007C91.7659 73.0025 93.1049 71.9464 94.0495 70.5718C94.994 69.1972 95.4998 67.5685 95.5 65.9007V23.1052C95.4998 21.4373 94.994 19.8087 94.0495 18.434C93.1049 17.0594 91.7659 16.0034 90.209 15.4052L71.1735 8.09016ZM85.0005 24.1227C84.7385 23.4423 84.217 22.8939 83.5508 22.5979C82.8845 22.3019 82.128 22.2826 81.4475 22.5442L66.2345 28.3962C65.599 28.6406 64.8955 28.6406 64.26 28.3962L49.047 22.5442C48.708 22.4038 48.3442 22.3328 47.9773 22.3352C47.6104 22.3376 47.2476 22.4134 46.9104 22.5582C46.5733 22.7029 46.2685 22.9137 46.014 23.1781C45.7595 23.4425 45.5605 23.7551 45.4288 24.0976C45.297 24.44 45.2351 24.8054 45.2467 25.1722C45.2583 25.5389 45.3432 25.8997 45.4964 26.2331C45.6496 26.5665 45.8679 26.866 46.1386 27.1137C46.4093 27.3615 46.7268 27.5525 47.0725 27.6757L62.2855 33.5277C64.1919 34.261 66.3026 34.261 68.209 33.5277L83.422 27.6757C84.1023 27.4136 84.6508 26.8922 84.9468 26.2259C85.2428 25.5597 85.2621 24.8032 85.0005 24.1227ZM57.5005 51.6227C57.2385 50.9423 56.717 50.3939 56.0508 50.0979C55.3845 49.8019 54.628 49.7826 53.9475 50.0442L37.75 56.2757L21.547 50.0442C20.8658 49.7823 20.1085 49.8018 19.4416 50.0984C18.7748 50.3949 18.2531 50.9442 17.9913 51.6254C17.7294 52.3066 17.7489 53.0639 18.0455 53.7308C18.342 54.3976 18.8913 54.9193 19.5725 55.1812L35 61.1102V74.8052C35 75.5345 35.2897 76.234 35.8055 76.7497C36.3212 77.2654 37.0207 77.5552 37.75 77.5552C38.4793 77.5552 39.1788 77.2654 39.6945 76.7497C40.2103 76.234 40.5 75.5345 40.5 74.8052V61.1102L55.922 55.1757C56.6023 54.9136 57.1508 54.3922 57.4468 53.7259C57.7428 53.0597 57.7621 52.3032 57.5005 51.6227ZM43.6735 35.5902C39.8607 34.1236 35.6393 34.1236 31.8265 35.5902L12.791 42.9052C11.2341 43.5034 9.89508 44.5594 8.95052 45.934C8.00596 47.3087 7.50022 48.9373 7.5 50.6052V76.8952C7.50022 78.563 8.00596 80.1917 8.95052 81.5663C9.89508 82.9409 11.2341 83.997 12.791 84.5952L31.821 91.9212C35.6355 93.3892 39.859 93.3892 43.6735 91.9212L62.709 84.6007C64.2649 84.0016 65.6027 82.9451 66.5463 81.5706C67.4898 80.196 67.9947 78.5679 67.9945 76.9007V50.6107C67.9947 48.9434 67.4898 47.3153 66.5463 45.9407C65.6027 44.5662 64.2649 43.5098 62.709 42.9107L43.6735 35.5902ZM33.801 40.7217C36.3429 39.7439 39.1571 39.7439 41.699 40.7217L60.7345 48.0422C61.2531 48.2423 61.6988 48.5948 62.013 49.0533C62.3272 49.5119 62.4951 50.0548 62.4945 50.6107V76.9007C62.494 77.4556 62.3256 77.9973 62.0115 78.4548C61.6973 78.9122 61.2522 79.2639 60.7345 79.4637L41.699 86.7952C39.1571 87.7729 36.3429 87.7729 33.801 86.7952L14.76 79.4637C14.2432 79.2642 13.7986 78.9134 13.4846 78.457C13.1705 78.0007 13.0016 77.4601 13 76.9062V50.6162C12.9994 50.0603 13.1673 49.5174 13.4815 49.0588C13.7957 48.6003 14.2414 48.2478 14.76 48.0477L33.801 40.7272V40.7217Z" fill="#FF5C0A"/>
</svg>
