<svg width="35" height="35" viewBox="0 0 35 35" fill="none" xmlns="http://www.w3.org/2000/svg">
<path d="M18.9375 5.09375C18.9375 4.77052 19.0659 4.46052 19.2945 4.23196C19.523 4.0034 19.833 3.875 20.1562 3.875H32.3438C32.667 3.875 32.977 4.0034 33.2055 4.23196C33.4341 4.46052 33.5625 4.77052 33.5625 5.09375C33.5625 5.41698 33.4341 5.72698 33.2055 5.95554C32.977 6.1841 32.667 6.3125 32.3438 6.3125H20.1562C19.833 6.3125 19.523 6.1841 19.2945 5.95554C19.0659 5.72698 18.9375 5.41698 18.9375 5.09375ZM18.9375 9.96875C18.9375 9.64552 19.0659 9.33552 19.2945 9.10696C19.523 8.8784 19.833 8.75 20.1562 8.75H32.3438C32.667 8.75 32.977 8.8784 33.2055 9.10696C33.4341 9.33552 33.5625 9.64552 33.5625 9.96875C33.5625 10.292 33.4341 10.602 33.2055 10.8305C32.977 11.0591 32.667 11.1875 32.3438 11.1875H20.1562C19.833 11.1875 19.523 11.0591 19.2945 10.8305C19.0659 10.602 18.9375 10.292 18.9375 9.96875ZM18.9375 14.8438C18.9375 14.5205 19.0659 14.2105 19.2945 13.982C19.523 13.7534 19.833 13.625 20.1562 13.625H32.3438C32.667 13.625 32.977 13.7534 33.2055 13.982C33.4341 14.2105 33.5625 14.5205 33.5625 14.8438C33.5625 15.167 33.4341 15.477 33.2055 15.7055C32.977 15.9341 32.667 16.0625 32.3438 16.0625H20.1562C19.833 16.0625 19.523 15.9341 19.2945 15.7055C19.0659 15.477 18.9375 15.167 18.9375 14.8438ZM6.75 6.3125H16.7072C16.8681 6.76588 17.1167 7.18025 17.4311 7.53125C17.1143 7.88225 16.8705 8.29663 16.7072 8.75H6.75C6.10353 8.75 5.48355 9.00681 5.02643 9.46393C4.56931 9.92105 4.3125 10.541 4.3125 11.1875V12.9912L16.5 19.553L18.8814 18.2709C19.2788 18.4171 19.7078 18.5 20.1562 18.5H23.598L17.0777 22.01C16.9001 22.1056 16.7016 22.1556 16.5 22.1556C16.2984 22.1556 16.0999 22.1056 15.9223 22.01L4.3125 15.7603V25.8125C4.3125 26.459 4.56931 27.079 5.02643 27.5361C5.48355 27.9932 6.10353 28.25 6.75 28.25H26.25C26.8965 28.25 27.5165 27.9932 27.9736 27.5361C28.4307 27.079 28.6875 26.459 28.6875 25.8125V18.5H31.125V25.8125C31.125 27.1054 30.6114 28.3454 29.6971 29.2596C28.7829 30.1739 27.5429 30.6875 26.25 30.6875H6.75C5.45707 30.6875 4.21709 30.1739 3.30285 29.2596C2.38861 28.3454 1.875 27.1054 1.875 25.8125V11.1875C1.875 9.89457 2.38861 8.65459 3.30285 7.74035C4.21709 6.82611 5.45707 6.3125 6.75 6.3125Z" fill="#3371F2"/>
</svg>
