<svg width="101" height="100" viewBox="0 0 101 100" fill="none" xmlns="http://www.w3.org/2000/svg">
<path d="M30.5 15H80.5C81.8261 15 83.0979 15.5268 84.0355 16.4645C84.9732 17.4021 85.5 18.6739 85.5 20V55C85.5 56.3261 84.9732 57.5978 84.0355 58.5355C83.0979 59.4732 81.8261 60 80.5 60H45.5V65H60.5V75H45.5V80H73C73.663 80 74.2989 79.7366 74.7678 79.2678C75.2366 78.7989 75.5 78.163 75.5 77.5C75.5 76.837 75.2366 76.2011 74.7678 75.7322C74.2989 75.2634 73.663 75 73 75H65.5V65H80.5C83.1522 65 85.6957 63.9464 87.5711 62.0711C89.4464 60.1957 90.5 57.6522 90.5 55V20C90.5 17.3478 89.4464 14.8043 87.5711 12.9289C85.6957 11.0536 83.1522 10 80.5 10H30.5C27.8478 10 25.3043 11.0536 23.4289 12.9289C21.5536 14.8043 20.5 17.3478 20.5 20V35H25.5V20C25.5 18.6739 26.0268 17.4021 26.9645 16.4645C27.9021 15.5268 29.1739 15 30.5 15ZM23 75C22.337 75 21.7011 75.2634 21.2322 75.7322C20.7634 76.2011 20.5 76.837 20.5 77.5C20.5 78.163 20.7634 78.7989 21.2322 79.2678C21.7011 79.7366 22.337 80 23 80H28C28.663 80 29.2989 79.7366 29.7678 79.2678C30.2366 78.7989 30.5 78.163 30.5 77.5C30.5 76.837 30.2366 76.2011 29.7678 75.7322C29.2989 75.2634 28.663 75 28 75H23ZM10.5 47.5C10.5 45.5109 11.2902 43.6032 12.6967 42.1967C14.1032 40.7902 16.0109 40 18 40H33C34.9891 40 36.8968 40.7902 38.3033 42.1967C39.7098 43.6032 40.5 45.5109 40.5 47.5V82.5C40.5 84.4891 39.7098 86.3968 38.3033 87.8033C36.8968 89.2098 34.9891 90 33 90H18C16.0109 90 14.1032 89.2098 12.6967 87.8033C11.2902 86.3968 10.5 84.4891 10.5 82.5V47.5ZM18 45C17.337 45 16.7011 45.2634 16.2322 45.7322C15.7634 46.2011 15.5 46.837 15.5 47.5V82.5C15.5 83.163 15.7634 83.7989 16.2322 84.2678C16.7011 84.7366 17.337 85 18 85H33C33.663 85 34.2989 84.7366 34.7678 84.2678C35.2366 83.7989 35.5 83.163 35.5 82.5V47.5C35.5 46.837 35.2366 46.2011 34.7678 45.7322C34.2989 45.2634 33.663 45 33 45H18Z" fill="#FF5C0A"/>
</svg>
