<svg width="101" height="100" viewBox="0 0 101 100" fill="none" xmlns="http://www.w3.org/2000/svg">
<path d="M21.9062 18.875C19.7431 18.875 17.6685 19.7343 16.1389 21.2639C14.6093 22.7935 13.75 24.8681 13.75 27.0312V70.5312C13.7502 72.5625 14.5083 74.5206 15.876 76.0224C17.2437 77.5243 19.1226 78.4617 21.145 78.6512C21.5625 81.1927 22.8683 83.5035 24.8301 85.1722C26.7919 86.8409 29.2823 87.7592 31.8578 87.7636C34.4333 87.7679 36.9268 86.858 38.8942 85.196C40.8616 83.5339 42.1753 81.2275 42.6014 78.6875H50.1486C50.5727 81.2259 51.8832 83.5317 53.8472 85.1948C55.8112 86.858 58.3014 87.7707 60.875 87.7707C63.4486 87.7707 65.9388 86.858 67.9028 85.1948C69.8668 83.5317 71.1773 81.2259 71.6014 78.6875H78.0938C79.1648 78.6875 80.2255 78.4765 81.215 78.0666C82.2046 77.6568 83.1037 77.056 83.8611 76.2986C84.6185 75.5412 85.2193 74.6421 85.6291 73.6525C86.039 72.663 86.25 71.6023 86.25 70.5312V50.9091C86.2494 49.7016 85.9808 48.5093 85.4634 47.4182L79.3045 34.4154C78.6437 33.0199 77.6003 31.8407 76.2957 31.0148C74.9911 30.189 73.4789 29.7503 71.9349 29.75H66.3125V27.0312C66.3125 24.8681 65.4532 22.7935 63.9236 21.2639C62.394 19.7343 60.3194 18.875 58.1562 18.875H21.9062ZM71.1337 73.25C70.2664 70.8064 68.5573 68.7515 66.3125 67.4536V53.3125H80.8125V64.1875H76.2812C75.5602 64.1875 74.8687 64.4739 74.3588 64.9838C73.8489 65.4937 73.5625 66.1852 73.5625 66.9062C73.5625 67.6273 73.8489 68.3188 74.3588 68.8287C74.8687 69.3386 75.5602 69.625 76.2812 69.625H80.8125V70.5312C80.8125 71.2523 80.5261 71.9438 80.0162 72.4537C79.5063 72.9636 78.8148 73.25 78.0938 73.25H71.1337ZM60.875 66C58.6253 65.9994 56.4307 66.6962 54.5934 67.9946C52.7562 69.293 51.3667 71.1291 50.6163 73.25H42.1337C41.3848 71.1294 39.9971 69.2931 38.1615 67.9937C36.3259 66.6943 34.1327 65.9957 31.8837 65.9941C29.6348 65.9925 27.4406 66.688 25.6032 67.9848C23.7658 69.2816 22.3754 71.116 21.6235 73.2355C20.955 73.1656 20.3361 72.8505 19.8862 72.3511C19.4364 71.8517 19.1874 71.2034 19.1875 70.5312V27.0312C19.1875 26.3102 19.4739 25.6187 19.9838 25.1088C20.4937 24.5989 21.1852 24.3125 21.9062 24.3125H58.1562C58.8773 24.3125 59.5688 24.5989 60.0787 25.1088C60.5886 25.6187 60.875 26.3102 60.875 27.0312V66ZM66.3125 35.1875H71.9312C72.4467 35.1867 72.9518 35.3325 73.3876 35.6078C73.8235 35.8832 74.172 36.2767 74.3926 36.7426L79.6634 47.875H66.3125V35.1875ZM31.875 82.3125C30.4329 82.3125 29.0498 81.7396 28.0301 80.7199C27.0104 79.7002 26.4375 78.3171 26.4375 76.875C26.4375 75.4329 27.0104 74.0498 28.0301 73.0301C29.0498 72.0104 30.4329 71.4375 31.875 71.4375C33.3171 71.4375 34.7002 72.0104 35.7199 73.0301C36.7396 74.0498 37.3125 75.4329 37.3125 76.875C37.3125 78.3171 36.7396 79.7002 35.7199 80.7199C34.7002 81.7396 33.3171 82.3125 31.875 82.3125V82.3125ZM66.3125 76.875C66.3125 78.3171 65.7396 79.7002 64.7199 80.7199C63.7002 81.7396 62.3171 82.3125 60.875 82.3125C59.4329 82.3125 58.0498 81.7396 57.0301 80.7199C56.0104 79.7002 55.4375 78.3171 55.4375 76.875C55.4375 75.4329 56.0104 74.0498 57.0301 73.0301C58.0498 72.0104 59.4329 71.4375 60.875 71.4375C62.3171 71.4375 63.7002 72.0104 64.7199 73.0301C65.7396 74.0498 66.3125 75.4329 66.3125 76.875Z" fill="#FF5C0A"/>
<path fill-rule="evenodd" clip-rule="evenodd" d="M36.1994 40.512C34.0289 40.8028 32.1285 41.7162 30.6553 43.177C30.187 43.6413 29.4515 44.5264 29.4515 44.6256C29.4515 44.6538 30.1128 44.6654 30.9211 44.6517L32.3908 44.6266L32.8228 44.2107C33.6452 43.4191 34.3796 43.2893 35.8203 43.6809C37.0934 44.027 38.0117 43.9782 39.1388 43.5046C39.2701 43.4495 39.259 43.4871 39.0746 43.7236C38.6054 44.3254 37.7622 44.6655 36.7343 44.6678C36.4401 44.6686 36.1498 44.6998 36.0892 44.7373C36.0286 44.7749 35.8814 44.9958 35.7621 45.2282C35.3216 46.0857 34.8889 46.1595 33.3291 45.6428C32.4599 45.355 32.2407 45.3147 31.2918 45.2686C28.7359 45.1444 27.3599 45.5362 26.4702 46.6415C25.3335 48.0537 25.3477 50.1388 26.5025 51.3618C26.7996 51.6766 27.3253 51.8923 27.4642 51.7564C27.4917 51.7296 27.5205 51.4103 27.5281 51.0469C27.5442 50.2823 27.6786 49.9599 28.0795 49.7243C28.3134 49.5868 28.799 49.4244 28.7961 49.4848C28.7955 49.4966 28.6851 49.7183 28.5507 49.9775C27.9492 51.1374 28.4729 52.5155 29.7265 53.0723C30.1438 53.2575 30.9312 53.2728 31.4175 53.105C32.4374 52.7531 33.1674 51.5033 32.9021 50.5634C32.8384 50.338 32.8423 50.2662 32.918 50.2662C32.9729 50.2662 33.3657 50.4712 33.7907 50.7217L34.5635 51.1772L36.1176 51.2342C36.9724 51.2656 39.9911 51.2945 42.8259 51.2987L47.9802 51.3061L48.1303 51.7261C48.322 52.2618 49.0499 52.9852 49.5412 53.1281C50.2919 53.3464 51.1124 53.2006 51.7018 52.7441C51.9951 52.5169 52.5172 51.6659 52.5172 51.4149C52.5172 51.3312 52.891 51.3047 54.3167 51.2877C55.4299 51.2744 56.1239 51.2357 56.1364 51.1862C56.162 51.085 53.3147 50.4944 51.5356 50.2317C50.7934 50.1222 49.1453 49.9045 47.8734 49.748C45.1908 49.4179 44.5753 49.2473 45.0916 48.9771C45.2233 48.9082 45.6767 48.8965 46.748 48.9342C48.333 48.9901 49.4009 49.0888 52.4763 49.4638C55.146 49.7894 55.1346 49.7882 55.1346 49.7455C55.1346 49.6855 53.5555 48.9267 52.9034 48.6734C50.4653 47.7262 47.6456 47.1696 44.1129 46.9385C43.6518 46.9083 43.2745 46.8536 43.2745 46.8169C43.2745 46.5418 44.2401 46.3465 45.6007 46.3465C47.2667 46.3465 49.3375 46.6419 52.3124 47.3041C53.0771 47.4743 53.7212 47.5947 53.7438 47.5715C53.8255 47.4883 52.987 46.8446 52.1665 46.3605C50.5132 45.3853 48.4102 44.5542 46.845 44.2575C46.1229 44.1205 44.132 43.8696 43.7511 43.8675C43.5686 43.8664 43.0831 43.4616 43.1674 43.3806C43.2038 43.3456 43.5649 43.2739 43.9698 43.2215C44.8849 43.1029 46.0141 43.1679 47.5974 43.4302C48.2499 43.5382 48.8406 43.6267 48.9101 43.6267C49.101 43.6267 47.5725 42.5513 46.8723 42.1929C45.5785 41.5308 43.2452 40.9364 40.7222 40.6262C39.4742 40.4728 36.9647 40.4094 36.1994 40.512ZM29.3206 46.3789C28.8822 46.5687 28.8156 47.0225 29.2136 47.1081C29.4695 47.163 30.0705 47.1037 30.3756 46.9933C30.5332 46.9363 30.5272 46.9177 30.2625 46.6426C29.9344 46.3015 29.6703 46.2276 29.3206 46.3789Z" fill="#FF5C0A"/>
</svg>
