<svg width="35" height="35" viewBox="0 0 35 35" fill="none" xmlns="http://www.w3.org/2000/svg">
<g clip-path="url(#clip0_1_305)">
<path d="M7.30919 5.80089H32.0639C32.4489 5.79754 32.8307 5.87075 33.1872 6.0163C33.5438 6.16184 33.8681 6.37682 34.1413 6.64882C34.4145 6.92082 34.6312 7.24443 34.779 7.60095C34.9267 7.95747 35.0025 8.33982 35.002 8.72589V26.2759C35.002 27.0516 34.6947 27.7956 34.1477 28.3442C33.6007 28.8927 32.8588 29.2009 32.0853 29.2009H6.82502C6.44193 29.2011 6.06254 29.1257 5.70856 28.9788C5.35458 28.8319 5.03295 28.6164 4.76206 28.3447C4.49117 28.0731 4.27634 27.7505 4.12985 27.3955C3.98337 27.0405 3.9081 26.6601 3.90836 26.2759V17.2805C4.21558 17.417 4.54613 17.495 4.88058 17.5009C5.21502 17.497 5.54558 17.4287 5.8528 17.2961V26.2759C5.8528 26.5345 5.95523 26.7825 6.13756 26.9653C6.31989 27.1482 6.56717 27.2509 6.82502 27.2509H11.6822V24.3259C11.6822 23.5501 11.9895 22.8061 12.5365 22.2576C13.0835 21.7091 13.8254 21.4009 14.5989 21.4009H24.3153C24.6984 21.4006 25.0778 21.4761 25.4318 21.623C25.7857 21.7699 26.1074 21.9854 26.3783 22.257C26.6492 22.5287 26.864 22.8512 27.0105 23.2062C27.157 23.5612 27.2322 23.9417 27.232 24.3259V27.2509H32.0892C32.347 27.2509 32.5943 27.1482 32.7767 26.9653C32.959 26.7825 33.0614 26.5345 33.0614 26.2759V8.72589C33.0614 8.4673 32.959 8.21931 32.7767 8.03646C32.5943 7.85361 32.347 7.75089 32.0892 7.75089H8.37863C8.23362 7.69835 8.10116 7.61599 7.98975 7.50909C7.86701 7.38614 7.77506 7.23579 7.72141 7.07034L7.30919 5.80284V5.80089ZM13.6034 27.2509H25.2642V24.3259C25.2642 24.0673 25.1618 23.8193 24.9794 23.6365C24.7971 23.4536 24.5498 23.3509 24.292 23.3509H14.5756C14.3177 23.3509 14.0704 23.4536 13.8881 23.6365C13.7058 23.8193 13.6034 24.0673 13.6034 24.3259V27.2509ZM22.8686 11.1283C23.5484 11.8098 24.0115 12.6782 24.1992 13.6236C24.387 14.569 24.2911 15.5491 23.9235 16.4398C23.556 17.3305 22.9334 18.092 22.1344 18.628C21.3355 19.1639 20.396 19.4503 19.4347 19.4509C18.7962 19.4514 18.1639 19.3257 17.5739 19.0808C16.9839 18.836 16.4478 18.477 15.9963 18.0242C15.5448 17.5714 15.1867 17.0338 14.9426 16.4421C14.6985 15.8504 14.5731 15.2162 14.5736 14.5759C14.5736 13.283 15.0858 12.043 15.9974 11.1287C16.9091 10.2145 18.1455 9.70089 19.4347 9.70089C20.722 9.70089 21.9586 10.2137 22.8686 11.1283ZM17.3717 12.5069C17.1008 12.7788 16.8859 13.1014 16.7393 13.4566C16.5927 13.8117 16.5173 14.1922 16.5174 14.5766C16.5175 14.9609 16.5931 15.3415 16.7398 15.6965C16.8866 16.0515 17.1016 16.3741 17.3727 16.6458C17.6437 16.9175 17.9655 17.133 18.3196 17.28C18.6737 17.427 19.0532 17.5026 19.4364 17.5025C19.8196 17.5024 20.1991 17.4266 20.5531 17.2795C20.9072 17.1323 21.2288 16.9167 21.4997 16.6448C22.0469 16.0959 22.3542 15.3514 22.354 14.5752C22.3538 13.799 22.0462 13.0547 21.4988 12.506C20.9514 11.9572 20.209 11.6491 19.435 11.6493C18.6611 11.6494 17.9188 11.958 17.3717 12.5069ZM8.01113 16.1944C7.94471 16.2189 7.88695 16.2624 7.8451 16.3197C7.80325 16.3769 7.77917 16.4452 7.77586 16.5161C7.77597 16.5896 7.7991 16.6613 7.84197 16.7209C7.8828 16.7794 7.94308 16.8262 8.01113 16.8496L8.90558 17.1421C9.17594 17.2345 9.42144 17.3881 9.62309 17.591C9.82473 17.7939 9.97708 18.0407 10.0684 18.3121L10.36 19.2091C10.3844 19.2759 10.4282 19.3339 10.4857 19.3756C10.5432 19.4173 10.6119 19.4408 10.6828 19.4431C10.7541 19.4422 10.8233 19.4192 10.8811 19.3773C10.9389 19.3354 10.9824 19.2767 11.0056 19.2091L11.2972 18.3121C11.387 18.0397 11.539 17.7922 11.7413 17.5894C11.9436 17.3865 12.1904 17.234 12.462 17.144L13.3525 16.8535C13.4219 16.8301 13.4819 16.785 13.5236 16.7248C13.5546 16.6809 13.5749 16.6303 13.583 16.5771C13.591 16.5239 13.5866 16.4696 13.5699 16.4184C13.5533 16.3673 13.525 16.3207 13.4872 16.2825C13.4495 16.2443 13.4034 16.2155 13.3525 16.1983H13.335L12.4445 15.9019C12.1731 15.8111 11.9265 15.6583 11.724 15.4556C11.5215 15.2529 11.3688 15.0058 11.2778 14.7338L10.9861 13.8388C10.9708 13.7959 10.9477 13.7563 10.9181 13.7218C10.8862 13.686 10.8473 13.6571 10.8038 13.637C10.7603 13.6169 10.7132 13.6059 10.6653 13.6048C10.5924 13.6056 10.5214 13.628 10.4611 13.6691C10.4018 13.7109 10.3569 13.7702 10.3328 13.8388L10.0431 14.7358C9.95179 15.0044 9.80238 15.2495 9.60558 15.4534C9.40726 15.6556 9.16503 15.8091 8.8978 15.9019L8.01113 16.1885V16.1944ZM4.85919 15.5509C4.73874 15.5511 4.62118 15.5139 4.52266 15.4444C4.42413 15.3749 4.34946 15.2766 4.30891 15.1628L3.8228 13.6711C3.67457 13.2157 3.42172 12.8017 3.08465 12.4623C2.74758 12.1229 2.33571 11.8677 1.88225 11.7172L0.396691 11.2316C0.281555 11.1917 0.181766 11.1167 0.111324 11.017C0.0408817 10.9173 0.00332155 10.7981 0.00391313 10.6759C0.00372767 10.5541 0.0414763 10.4352 0.11189 10.3359C0.182304 10.2366 0.28187 10.1619 0.396691 10.1221L1.88225 9.63654C2.32359 9.48517 2.72447 9.2344 3.05412 8.90346C3.38377 8.57253 3.63343 8.17025 3.78391 7.72749L3.79558 7.69044L4.27975 6.19869C4.31954 6.08323 4.39438 5.98315 4.49376 5.91251C4.59315 5.84187 4.7121 5.8042 4.83391 5.80479C4.9554 5.80461 5.07391 5.84246 5.17291 5.91308C5.27191 5.98369 5.34645 6.08354 5.38613 6.19869L5.87225 7.69044C5.92475 7.83669 5.98891 7.97904 6.06669 8.11554C6.2028 8.40219 6.38752 8.66544 6.60725 8.89554C6.94558 9.23289 7.35586 9.48834 7.80891 9.63849L9.29447 10.126H9.32364C9.43877 10.1659 9.53856 10.241 9.609 10.3406C9.67944 10.4403 9.717 10.5596 9.71641 10.6817C9.7166 10.8036 9.67885 10.9224 9.60843 11.0217C9.53802 11.121 9.43846 11.1957 9.32364 11.2355L7.83808 11.723C7.3853 11.8723 6.97373 12.1259 6.63638 12.4635C6.29903 12.8012 6.04531 13.2134 5.89558 13.6672L5.41141 15.1589L5.3978 15.1979C5.35382 15.2956 5.28551 15.3802 5.19947 15.4436C5.09999 15.5141 4.981 15.5516 4.85919 15.5509Z" fill="#3371F2"/>
</g>
<defs>
<clipPath id="clip0_1_305">
<rect width="35" height="35" fill="white"/>
</clipPath>
</defs>
</svg>
